<svg width="159" height="40" viewBox="0 0 159 40" fill="none" xmlns="http://www.w3.org/2000/svg">
<path fill-rule="evenodd" clip-rule="evenodd" d="M0 17.9709L12.4503 10.7825L6.22514 7.18835L18.6754 0L43 14.0441L43 21.2325L36.7749 24.8267L36.7749 32.015L23.8108 39.5L0.898514 26.2713L7.63743 22.3804L24.0677 31.8667L30.2928 28.2725L13.8626 18.7863L7.63743 22.3804L0 17.9709ZM13.8626 11.5979L20.0877 8.00375L36.518 17.49L30.2928 21.0842L13.8626 11.5979Z" fill="#2BBAEE"/>
<path d="M53.15 4.65H67.985C70.0777 4.65 71.8407 4.83633 73.274 5.209C74.736 5.553 75.9113 6.09767 76.8 6.843C77.7173 7.55967 78.3767 8.46267 78.778 9.552C79.1793 10.6127 79.38 11.8597 79.38 13.293C79.38 15.9017 78.5057 17.937 76.757 19.399C79.3657 20.8897 80.67 23.097 80.67 26.021C80.67 27.4543 80.4693 28.7157 80.068 29.805C79.6667 30.8943 78.993 31.8117 78.047 32.557C77.101 33.2737 75.8397 33.8183 74.263 34.191C72.715 34.5637 70.7943 34.75 68.501 34.75H53.15V4.65ZM67.942 17.335C68.888 17.335 69.7337 17.2777 70.479 17.163C71.2243 17.0483 71.855 16.8477 72.371 16.561C72.887 16.2457 73.2883 15.83 73.575 15.314C73.8617 14.7693 74.005 14.0957 74.005 13.293C74.005 11.917 73.4603 10.928 72.371 10.326C71.3103 9.69533 69.8627 9.38 68.028 9.38H58.31V17.335H67.942ZM68.544 30.02C70.7513 30.02 72.4283 29.7333 73.575 29.16C74.7217 28.5867 75.295 27.5403 75.295 26.021C75.295 25.3617 75.123 24.7883 74.779 24.301C74.435 23.8137 73.9477 23.4123 73.317 23.097C72.715 22.753 71.9983 22.495 71.167 22.323C70.3357 22.151 69.447 22.065 68.501 22.065H58.31V30.02H68.544ZM105.393 25.462H88.0643C88.2937 27.5833 88.996 29.074 90.1713 29.934C91.3467 30.7653 92.909 31.181 94.8583 31.181C95.6897 31.181 96.4493 31.0807 97.1373 30.88C97.854 30.6793 98.4703 30.407 98.9863 30.063C99.5023 29.719 99.9037 29.3177 100.19 28.859C100.477 28.4003 100.62 27.913 100.62 27.397L105.135 27.44C105.135 29.848 104.261 31.783 102.512 33.245C100.792 34.6783 98.241 35.395 94.8583 35.395C90.759 35.395 87.7203 34.4347 85.7423 32.514C83.793 30.5933 82.8183 27.741 82.8183 23.957C82.8183 20.259 83.7643 17.4497 85.6563 15.529C87.577 13.5797 90.3863 12.605 94.0843 12.605C98.1263 12.605 101.022 13.6227 102.77 15.658C104.519 17.6647 105.393 20.646 105.393 24.602V25.462ZM100.491 21.807C100.262 20.001 99.6027 18.711 98.5133 17.937C97.424 17.163 96.0193 16.776 94.2993 16.776C92.7513 16.776 91.4327 17.206 90.3433 18.066C89.254 18.8973 88.5373 20.1443 88.1933 21.807H100.491ZM130.547 25.462H113.218C113.447 27.5833 114.149 29.074 115.325 29.934C116.5 30.7653 118.062 31.181 120.012 31.181C120.843 31.181 121.603 31.0807 122.291 30.88C123.007 30.6793 123.624 30.407 124.14 30.063C124.656 29.719 125.057 29.3177 125.344 28.859C125.63 28.4003 125.774 27.913 125.774 27.397L130.289 27.44C130.289 29.848 129.414 31.783 127.666 33.245C125.946 34.6783 123.394 35.395 120.012 35.395C115.912 35.395 112.874 34.4347 110.896 32.514C108.946 30.5933 107.972 27.741 107.972 23.957C107.972 20.259 108.918 17.4497 110.81 15.529C112.73 13.5797 115.54 12.605 119.238 12.605C123.28 12.605 126.175 13.6227 127.924 15.658C129.672 17.6647 130.547 20.646 130.547 24.602V25.462ZM125.645 21.807C125.415 20.001 124.756 18.711 123.667 17.937C122.577 17.163 121.173 16.776 119.453 16.776C117.905 16.776 116.586 17.206 115.497 18.066C114.407 18.8973 113.691 20.1443 113.347 21.807H125.645ZM133.125 4.65H157.42V9.38L140.005 30.02H157.42V34.75H133.125V30.02L150.497 9.38H133.125V4.65Z" fill="#272727"/>
</svg>
